PathFileType	4	(X/Y/Z)	C:\Users\WrightLab\Desktop\Jo\P5V122.trc
DataRate	CameraRate	NumFrames	NumMarkers	Units	OrigDataRate	OrigDataStartFrame	OrigNumFrames
100.00	100.00	       10	19	mm	100.00	214	       569
Frame#	Time	Headset_Front			Headset_Back			Headset_Left			Headset_Right			Left_Shoulder			Right_Shoulder			Sternum			C7			Left Elbow			Right Elbow			Left Wrist			Right Wrist			Left ASIS			Right ASIS			S2			Left Knee			Right Knee			Left Ankle			Right Ankle			
		X1	Y1	Z1	X2	Y2	Z2	X3	Y3	Z3	X4	Y4	Z4	X5	Y5	Z5	X6	Y6	Z6	X7	Y7	Z7	X8	Y8	Z8	X9	Y9	Z9	X10	Y10	Z10	X11	Y11	Z11	X12	Y12	Z12	X13	Y13	Z13	X14	Y14	Z14	X15	Y15	Z15	X16	Y16	Z16	X17	Y17	Z17	X18	Y18	Z18	X19	Y19	Z19	

214	2.130	-296.71127	1523.02686	251.46024	-453.46371	1489.43152	-85.18553							-209.19728	1476.32776	-55.56087	-589.91718	1438.54053	103.62215	-363.70145	1316.27405	130.42636	-423.36801	1599.35779	219.14622	-124.78230	1181.08777	-33.71109	-696.69110	1162.30981	84.93984	-67.55141	972.58838	93.06739	-709.53662	909.34497	179.87999	-253.04037	917.21497	100.82286	-497.37463	948.16364	222.43532	-481.06577	948.82764	-149.25356	-353.68774	460.46353	49.18750	-457.14670	539.79712	268.90228	-519.64612	197.22203	-285.69464	-530.99524	104.53098	221.34595	
215	2.140	-292.54446	1524.55347	261.16162	-451.26480	1491.67261	-75.49989							-206.25749	1478.99292	-48.37273	-585.22327	1439.97449	115.35144	-358.75891	1318.41467	139.06532	-418.36588	1600.78125	229.60982	-121.69672	1182.38062	-29.91394	-692.18353	1162.94385	98.19892	-62.69193	973.81732	95.83235	-703.20410	910.81982	193.87085	-246.39830	920.39417	112.41846	-491.14865	949.20007	231.34499	-475.69974	949.75482	-136.85899	-342.99542	460.14978	67.61958	-455.06232	538.10461	274.81354	-518.37714	207.25533	-269.70779	-530.78693	104.73523	221.70723	
216	2.150	-287.17615	1525.39966	270.45782	-448.77679	1493.52991	-64.79169							-203.06982	1481.48071	-41.56113	-579.93256	1440.64392	127.81168	-353.22229	1319.61804	148.17589	-414.33594	1602.86877	240.24901	-118.05187	1184.91638	-25.77207	-687.35284	1164.10083	110.30853	-57.46548	975.05078	98.76158	-695.77203	912.64526	209.27855	-240.46191	922.88916	119.65411	-485.61060	950.68732	240.96729	-469.61768	951.49683	-123.93172	-331.80869	458.94623	84.93715	-454.14368	538.63312	283.32809	-517.04718	215.98286	-252.39998	-530.81885	104.86352	222.58842	
217	2.160	-282.65643	1527.11182	279.86545	-446.21902	1495.88721	-55.36000							-200.91081	1482.52612	-33.84349	-573.87610	1441.70911	139.13702	-347.69568	1321.10229	155.79475	-409.60147	1603.90637	250.31808	-115.42631	1188.00183	-21.85581	-682.78748	1166.39990	121.96026	-52.61278	977.03070	101.46995	-688.70868	914.46344	223.31384	-234.02097	924.59839	126.99107	-478.76312	951.88580	249.06511	-463.99121	952.75623	-111.23876	-320.21533	457.22974	102.45280	-454.24432	538.86395	291.48105	-515.69843	226.61418	-235.10898	-530.70184	105.08919	223.31830	
218	2.170	-277.58691	1528.47974	289.01096	-443.28616	1498.76538	-45.10830							-197.61432	1485.25964	-25.70905	-568.57867	1443.53870	149.78932	-341.91626	1322.87988	163.80782	-405.04099	1604.43628	259.89078	-111.10258	1190.64355	-18.09678	-678.06317	1168.66345	134.11757	-47.79860	978.72882	104.26718	-681.37775	916.41327	236.83835	-228.26385	925.87817	130.51448	-471.57065	953.26904	256.92148	-458.31131	954.85236	-98.73984	-305.61929	457.84973	117.55848	-454.17270	538.25836	298.55173	-513.91547	236.57080	-218.32486	-530.73187	106.08212	224.38754	
219	2.180	-273.70291	1530.14258	298.66690	-440.38104	1501.34412	-35.78132							-193.20015	1489.18628	-19.40657	-562.25653	1445.08240	162.62596	-336.60303	1324.93567	171.17763	-400.19214	1605.21863	269.11273	-108.95021	1192.23059	-10.13954	-671.97302	1170.25110	147.45819	-42.88335	981.28387	107.59283	-673.99420	919.52826	250.48544	-221.59012	928.28040	137.43317	-465.21207	954.50659	264.88107	-452.33356	957.63562	-86.69398	-289.31531	460.59952	130.57115	-453.77161	536.69360	305.32703	-512.88483	246.42972	-200.97435	-530.69098	106.60390	224.90353	
220	2.190	-267.54459	1530.83911	307.06787	-436.35715	1504.25793	-25.06036							-190.19749	1491.56567	-11.73545	-556.62915	1447.08899	173.61353	-331.15063	1326.94482	178.60547	-396.10577	1606.41516	279.03030	-104.80678	1195.50916	-7.22674	-665.72235	1172.23291	160.67645	-38.00653	983.36224	108.66322	-666.17493	921.94684	263.98068	-214.45258	931.28296	143.87561	-459.22662	955.90759	273.15811	-446.53577	959.92328	-75.50843	-271.80908	465.71744	142.07275	-454.94351	535.16162	311.39685	-511.61163	256.23010	-183.36491	-530.15833	106.91641	225.13564	
221	2.200	-263.75226	1532.44910	316.62192	-432.80072	1507.00879	-16.10571							-186.66243	1494.15967	-4.64600	-550.64349	1449.91296	184.29445	-325.22205	1328.43835	186.05945	-390.87515	1607.75623	288.39645	-101.28711	1197.92188	-2.03814	-659.70056	1175.05115	173.40721	-33.45596	985.13232	110.20953	-658.72430	925.00067	277.84460	-208.19615	932.75171	148.92091	-452.72119	957.44592	280.88257	-441.00906	962.56964	-63.36558	-255.28732	470.30975	152.36420	-455.29419	532.85266	316.96298	-508.24146	263.89545	-164.28015	-529.82843	108.30492	226.21521	
222	2.210	-258.33398	1533.28906	325.29443	-429.67212	1509.87573	-6.49544							-182.09636	1497.42969	2.75504	-544.77142	1452.47437	194.91066	-319.38998	1330.21033	192.61244	-386.02820	1609.90295	298.16266	-97.80344	1200.35278	2.35156	-653.50153	1177.62805	186.20178	-28.79924	987.10065	112.27642	-650.67096	928.07507	291.19238	-200.11781	936.27625	155.73601	-446.45139	958.91058	289.35251	-435.61865	965.58411	-53.58604	-238.79221	476.04868	161.87102	-456.92987	531.73108	323.54233	-503.38086	270.18961	-145.53940	-529.12091	108.66374	226.47403	
223	2.220	-253.88834	1534.63391	334.52899	-425.41299	1512.59924	2.87803							-178.10492	1500.17456	8.86401	-539.46259	1454.95605	205.61800	-314.39758	1331.83752	200.50807	-381.08255	1611.19763	307.25085	-94.04077	1203.41296	5.34195	-646.65503	1179.63770	199.10068	-23.81970	988.68958	114.36800	-642.53424	931.56708	304.34698	-192.75919	937.73254	159.98907	-440.05331	960.59406	296.49054	-430.79068	968.72784	-41.72337	-224.35986	481.61331	171.58585	-458.52975	529.94812	330.38684	-497.06390	274.81039	-125.42767	-528.80841	109.46568	227.31671	
